<svg width="13" height="17" viewBox="0 0 13 17" fill="none" xmlns="http://www.w3.org/2000/svg">
<g clip-path="url(#clip0_1_624)">
<path d="M7.03329 2.21181C8.05075 0.880939 9.46525 0.874451 9.46525 0.874451C9.46525 0.874451 9.67566 2.12569 8.66487 3.33104C7.5856 4.61808 6.35886 4.40748 6.35886 4.40748C6.35886 4.40748 6.12851 3.39526 7.03329 2.21181V2.21181ZM6.48827 5.28397C7.0117 5.28397 7.98316 4.56991 9.24765 4.56991C11.4242 4.56991 12.2805 6.10696 12.2805 6.10696C12.2805 6.10696 10.6058 6.95672 10.6058 9.01861C10.6058 11.3446 12.692 12.1462 12.692 12.1462C12.692 12.1462 11.2337 16.2198 9.26385 16.2198C8.35912 16.2198 7.65573 15.6148 6.70246 15.6148C5.731 15.6148 4.76697 16.2424 4.13909 16.2424C2.34033 16.2424 0.0678711 12.3782 0.0678711 9.27198C0.0678711 6.2159 1.99136 4.61273 3.79551 4.61273C4.96837 4.61273 5.87852 5.28397 6.48827 5.28397V5.28397Z" fill="#999999"/>
</g>
<defs>
<clipPath id="clip0_1_624">
<rect width="12.6242" height="15.3686" fill="white" transform="translate(0.0678711 0.873199)"/>
</clipPath>
</defs>
</svg>
