<svg width="37" height="37" viewBox="0 0 37 37" fill="none" xmlns="http://www.w3.org/2000/svg">
<g clip-path="url(#clip0_1_531)">
<path d="M22.7801 18.2324L10.9556 16.1324V31.6493C10.9556 32.3579 11.5264 32.9324 12.2305 32.9324H32.6341C33.3382 32.9324 33.9091 32.3579 33.9091 31.6493V25.9324L22.7801 18.2324Z" fill="#185C37"/>
<path d="M22.7802 4.93262H12.2306C11.5264 4.93262 10.9556 5.50708 10.9556 6.21571V11.9326L22.7802 18.9326L29.0402 21.0326L33.9091 18.9326V11.9326L22.7802 4.93262Z" fill="#21A366"/>
<path d="M10.9556 11.9326H22.7802V18.9326H10.9556V11.9326Z" fill="#107C41"/>
<path opacity="0.1" d="M19.4185 10.5331H10.9556V28.0331H19.4185C20.1216 28.0308 20.6911 27.4577 20.6934 26.75V11.8162C20.6911 11.1085 20.1216 10.5354 19.4185 10.5331Z" fill="black"/>
<path opacity="0.2" d="M18.7229 11.2329H10.9556V28.7329H18.7229C19.4261 28.7306 19.9956 28.1575 19.9978 27.4498V12.516C19.9956 11.8083 19.4261 11.2352 18.7229 11.2329Z" fill="black"/>
<path opacity="0.2" d="M18.7229 11.2329H10.9556V27.3329H18.7229C19.4261 27.3306 19.9956 26.7575 19.9978 26.0498V12.516C19.9956 11.8083 19.4261 11.2352 18.7229 11.2329Z" fill="black"/>
<path opacity="0.2" d="M18.0273 11.2329H10.9556V27.3329H18.0273C18.7305 27.3306 19.3 26.7575 19.3023 26.0498V12.516C19.3 11.8083 18.7305 11.2352 18.0273 11.2329Z" fill="black"/>
<path d="M5.27496 11.2329H18.0274C18.7315 11.2329 19.3023 11.8073 19.3023 12.516V25.3498C19.3023 26.0584 18.7315 26.6329 18.0274 26.6329H5.27496C4.57082 26.6329 4 26.0584 4 25.3498V12.516C4 11.8073 4.57082 11.2329 5.27496 11.2329Z" fill="url(#paint0_linear_1_531)"/>
<path d="M7.94867 23.1032L10.6307 18.9207L8.17334 14.7613H10.1501L11.4912 17.4213C11.615 17.674 11.6998 17.8616 11.7457 17.9855H11.7631C11.8512 17.7839 11.944 17.5882 12.0413 17.3982L13.4749 14.7627H15.2896L12.7696 18.8976L15.3536 23.1032H13.4227L11.8737 20.1835C11.8008 20.0593 11.7388 19.9288 11.6887 19.7936H11.6658C11.6204 19.9261 11.5602 20.0529 11.4863 20.1716L9.89138 23.1032H7.94867Z" fill="white"/>
<path d="M32.6342 4.93262H22.7802V11.9326H33.9091V6.21571C33.9091 5.50708 33.3383 4.93262 32.6342 4.93262Z" fill="#33C481"/>
<path d="M22.7802 18.9326H33.9091V25.9326H22.7802V18.9326Z" fill="#107C41"/>
</g>
<defs>
<linearGradient id="paint0_linear_1_531" x1="6.65832" y1="10.2303" x2="16.7396" y2="27.5799" gradientUnits="userSpaceOnUse">
<stop stop-color="#18884F"/>
<stop offset="0.5" stop-color="#117E43"/>
<stop offset="1" stop-color="#0B6631"/>
</linearGradient>
<clipPath id="clip0_1_531">
<rect width="29.9091" height="28" fill="white" transform="translate(4 4.93262)"/>
</clipPath>
</defs>
</svg>
