<svg width="36" height="37" viewBox="0 0 36 37" fill="none" xmlns="http://www.w3.org/2000/svg">
<g clip-path="url(#clip0_1_496)">
<path d="M22.2801 18.2324L10.4556 16.1324V31.6493C10.4556 32.3579 11.0264 32.9324 11.7305 32.9324H32.1341C32.8382 32.9324 33.4091 32.3579 33.4091 31.6493V25.9324L22.2801 18.2324Z" fill="#185C37"/>
<path d="M22.2802 4.93262H11.7306C11.0264 4.93262 10.4556 5.50708 10.4556 6.21571V11.9326L22.2802 18.9326L28.5402 21.0326L33.4091 18.9326V11.9326L22.2802 4.93262Z" fill="#21A366"/>
<path d="M10.4556 11.9326H22.2802V18.9326H10.4556V11.9326Z" fill="#107C41"/>
<path opacity="0.1" d="M18.9185 10.5331H10.4556V28.0331H18.9185C19.6216 28.0308 20.1911 27.4577 20.1934 26.75V11.8162C20.1911 11.1085 19.6216 10.5354 18.9185 10.5331Z" fill="black"/>
<path opacity="0.2" d="M18.2229 11.2329H10.4556V28.7329H18.2229C18.9261 28.7306 19.4956 28.1575 19.4978 27.4498V12.516C19.4956 11.8083 18.9261 11.2352 18.2229 11.2329Z" fill="black"/>
<path opacity="0.2" d="M18.2229 11.2329H10.4556V27.3329H18.2229C18.9261 27.3306 19.4956 26.7575 19.4978 26.0498V12.516C19.4956 11.8083 18.9261 11.2352 18.2229 11.2329Z" fill="black"/>
<path opacity="0.2" d="M17.5273 11.2329H10.4556V27.3329H17.5273C18.2305 27.3306 18.8 26.7575 18.8023 26.0498V12.516C18.8 11.8083 18.2305 11.2352 17.5273 11.2329Z" fill="black"/>
<path d="M4.77496 11.2329H17.5274C18.2315 11.2329 18.8023 11.8073 18.8023 12.516V25.3498C18.8023 26.0584 18.2315 26.6329 17.5274 26.6329H4.77496C4.07082 26.6329 3.5 26.0584 3.5 25.3498V12.516C3.5 11.8073 4.07082 11.2329 4.77496 11.2329Z" fill="url(#paint0_linear_1_496)"/>
<path d="M7.44867 23.1032L10.1307 18.9207L7.67334 14.7613H9.65011L10.9912 17.4213C11.115 17.674 11.1998 17.8616 11.2457 17.9855H11.2631C11.3512 17.7839 11.444 17.5882 11.5413 17.3982L12.9749 14.7627H14.7896L12.2696 18.8976L14.8536 23.1032H12.9227L11.3737 20.1835C11.3008 20.0593 11.2388 19.9288 11.1887 19.7936H11.1658C11.1204 19.9261 11.0602 20.0529 10.9863 20.1716L9.39138 23.1032H7.44867Z" fill="white"/>
<path d="M32.1342 4.93262H22.2802V11.9326H33.4091V6.21571C33.4091 5.50708 32.8383 4.93262 32.1342 4.93262Z" fill="#33C481"/>
<path d="M22.2802 18.9326H33.4091V25.9326H22.2802V18.9326Z" fill="#107C41"/>
</g>
<defs>
<linearGradient id="paint0_linear_1_496" x1="6.15832" y1="10.2303" x2="16.2396" y2="27.5799" gradientUnits="userSpaceOnUse">
<stop stop-color="#18884F"/>
<stop offset="0.5" stop-color="#117E43"/>
<stop offset="1" stop-color="#0B6631"/>
</linearGradient>
<clipPath id="clip0_1_496">
<rect width="29.9091" height="28" fill="white" transform="translate(3.5 4.93262)"/>
</clipPath>
</defs>
</svg>
