<svg width="20" height="20" viewBox="0 0 20 20" fill="none" xmlns="http://www.w3.org/2000/svg">
<path d="M9.9999 2.5C10.1099 2.5 10.2191 2.5 10.3274 2.5C9.25685 3.49475 8.56872 4.8332 8.38264 6.28268C8.19656 7.73216 8.52428 9.20103 9.30885 10.4339C10.0934 11.6669 11.2852 12.5859 12.6771 13.0312C14.0689 13.4766 15.5728 13.4201 16.9274 12.8717C16.4063 14.1254 15.5547 15.2142 14.4634 16.0219C13.3721 16.8296 12.0819 17.3259 10.7307 17.4578C9.37938 17.5898 8.01762 17.3525 6.79064 16.7712C5.56366 16.1899 4.51749 15.2864 3.76372 14.1572C3.00995 13.0279 2.57686 11.7152 2.51064 10.3591C2.44442 9.00305 2.74755 7.65441 3.38771 6.45709C4.02787 5.25977 4.98103 4.25869 6.14554 3.56061C7.31004 2.86253 8.64219 2.49366 9.9999 2.49333V2.5Z" stroke="#A3A3A3" stroke-width="1.5" stroke-linecap="round" stroke-linejoin="round"/>
</svg>
