<svg width="28" height="28" viewBox="0 0 28 28" fill="none" xmlns="http://www.w3.org/2000/svg">
<path d="M10.5 4.66669V23.3334M16.3333 11.6667L18.6666 14L16.3333 16.3334M4.66663 7.00002C4.66663 6.38118 4.91246 5.78769 5.35004 5.3501C5.78763 4.91252 6.38112 4.66669 6.99996 4.66669H21C21.6188 4.66669 22.2123 4.91252 22.6499 5.3501C23.0875 5.78769 23.3333 6.38118 23.3333 7.00002V21C23.3333 21.6189 23.0875 22.2124 22.6499 22.6499C22.2123 23.0875 21.6188 23.3334 21 23.3334H6.99996C6.38112 23.3334 5.78763 23.0875 5.35004 22.6499C4.91246 22.2124 4.66663 21.6189 4.66663 21V7.00002Z" stroke="#A3A3A3" stroke-width="1.5" stroke-linecap="round" stroke-linejoin="round"/>
</svg>
