<svg width="36" height="37" viewBox="0 0 36 37" fill="none" xmlns="http://www.w3.org/2000/svg">
<path fill-rule="evenodd" clip-rule="evenodd" d="M17.9684 0.966126C13.7969 0.966703 9.76173 2.49132 6.58463 5.26725C3.40753 8.04318 1.29578 11.8893 0.627133 16.1177C-0.0415109 20.3461 0.776571 24.6808 2.93504 28.3465C5.09351 32.0122 8.45155 34.7697 12.4085 36.1258C13.287 36.2933 13.6635 35.7391 13.6635 35.2623V32.1948C8.78136 33.2774 7.75221 29.7718 7.75221 29.7718C7.40889 28.667 6.68631 27.728 5.71902 27.1297C4.12509 26.0213 5.84452 26.0341 5.84452 26.0341C6.40127 26.1149 6.93268 26.3253 7.39817 26.6492C7.86366 26.9731 8.25091 27.4019 8.53034 27.903C9.01648 28.7984 9.829 29.4589 10.7892 29.7392C11.7495 30.0196 12.7788 29.8969 13.651 29.398C13.7218 28.4836 14.1144 27.6268 14.7554 26.9879C10.8647 26.5239 6.76071 24.9773 6.76071 18.0691C6.73226 16.2749 7.37974 14.5387 8.568 13.223C8.03015 11.6689 8.09304 9.96222 8.7437 8.45431C8.7437 8.45431 10.2121 7.96455 13.5757 10.2974C16.4516 9.49176 19.4851 9.49176 22.3611 10.2974C25.7121 7.96455 27.1805 8.45431 27.1805 8.45431C27.8311 9.96222 27.894 11.6689 27.3562 13.223C28.5444 14.5387 29.1919 16.2749 29.1635 18.0691C29.1635 25.0031 25.0594 26.5239 21.1437 26.975C21.5631 27.4116 21.8866 27.9355 22.0923 28.5113C22.2979 29.0871 22.381 29.7015 22.336 30.3131V35.2623C22.336 35.8551 22.6497 36.3062 23.591 36.1258C27.5531 34.768 30.9147 32.0052 33.0728 28.3327C35.2309 24.6603 36.0445 20.3185 35.3676 16.0858C34.6907 11.8531 32.5677 8.00654 29.3792 5.23577C26.1907 2.465 22.1453 0.951308 17.9684 0.966126Z" fill="#999999"/>
</svg>
