<svg width="34" height="33" viewBox="0 0 34 33" fill="none" xmlns="http://www.w3.org/2000/svg">
<path d="M17.0666 0.166031C7.7891 0.166031 0.266602 7.50942 0.266602 16.566C0.266602 25.6226 7.7891 32.966 17.0666 32.966C26.3441 32.966 33.8666 25.6226 33.8666 16.566C33.8666 7.50942 26.3441 0.166031 17.0666 0.166031ZM25.1403 12.5283C25.1516 12.7003 25.1516 12.8797 25.1516 13.0554C25.1516 18.4293 20.9591 24.6196 13.2979 24.6196C10.9354 24.6196 8.74535 23.9497 6.90035 22.7966C7.23785 22.8332 7.56035 22.8478 7.90535 22.8478C9.85535 22.8478 11.6479 22.2035 13.0766 21.1126C11.2466 21.076 9.7091 19.9046 9.1841 18.2939C9.82535 18.3854 10.4029 18.3854 11.0629 18.2207C10.1206 18.0338 9.27363 17.5342 8.66591 16.8068C8.05819 16.0795 7.72718 15.1691 7.7291 14.2305V14.1792C8.28035 14.4831 8.9291 14.6698 9.60785 14.6954C9.03726 14.3242 8.56932 13.8213 8.24552 13.2312C7.92172 12.6412 7.75206 11.9823 7.7516 11.3129C7.7516 10.5551 7.9541 9.86326 8.31785 9.26291C9.36374 10.5198 10.6688 11.5477 12.1483 12.2799C13.6278 13.0122 15.2486 13.4323 16.9054 13.513C16.3166 10.7492 18.4316 8.51246 20.9741 8.51246C22.1741 8.51246 23.2541 9.003 24.0153 9.79371C24.9566 9.62166 25.8566 9.27755 26.6591 8.8163C26.3478 9.7571 25.6954 10.5515 24.8291 11.053C25.6691 10.9651 26.4791 10.7382 27.2291 10.4197C26.6628 11.2324 25.9541 11.9535 25.1403 12.5283V12.5283Z" fill="#999999"/>
</svg>
