<svg width="29" height="32" viewBox="0 0 29 32" fill="none" xmlns="http://www.w3.org/2000/svg">
<path d="M25.4874 0.166031H3.71237C3.27381 0.166975 2.83974 0.250855 2.43496 0.41288C2.03018 0.574905 1.66262 0.811899 1.35326 1.11033C1.04391 1.40875 0.798834 1.76276 0.63203 2.15214C0.465226 2.54151 0.379965 2.95862 0.381115 3.37963V24.4708C0.379965 24.8918 0.465226 25.309 0.63203 25.6983C0.798834 26.0877 1.04391 26.4417 1.35326 26.7401C1.66262 27.0386 2.03018 27.2756 2.43496 27.4376C2.83974 27.5996 3.27381 27.6835 3.71237 27.6844H22.1399L21.2786 24.7984L23.3586 26.6548L25.3249 28.402L28.8186 31.366V3.37963C28.8198 2.95862 28.7345 2.54151 28.5677 2.15214C28.4009 1.76276 28.1558 1.40875 27.8465 1.11033C27.5371 0.811899 27.1696 0.574905 26.7648 0.41288C26.36 0.250855 25.9259 0.166975 25.4874 0.166031V0.166031ZM19.2149 20.5396C19.2149 20.5396 18.6299 19.8688 18.1424 19.276C19.3203 19.0098 20.3621 18.3522 21.0836 17.4196C20.4989 17.7932 19.872 18.102 19.2149 18.34C18.4589 18.6498 17.6683 18.8749 16.8586 19.0108C15.4669 19.2568 14.0396 19.2515 12.6499 18.9952C11.834 18.842 11.0344 18.6174 10.2611 18.3244C9.8535 18.174 9.45715 17.9967 9.07487 17.794C9.02612 17.7628 8.97737 17.7472 8.92862 17.716C8.90417 17.7043 8.88214 17.6885 8.86362 17.6692C8.70773 17.5877 8.5559 17.4992 8.40862 17.404C9.10403 18.3171 10.1099 18.9682 11.2524 19.2448C10.7649 19.8376 10.1636 20.5396 10.1636 20.5396C9.19833 20.5646 8.24145 20.3614 7.37719 19.9479C6.51293 19.5344 5.76779 18.9233 5.20737 18.1684C5.26012 15.0059 6.06024 11.8961 7.54737 9.07363C8.85604 8.08688 10.4516 7.51453 12.1136 7.43563L12.2761 7.62283C10.7124 7.99432 9.25325 8.69207 8.00237 9.66643C8.00237 9.66643 8.35987 9.47923 8.96112 9.21403C10.1292 8.70216 11.3741 8.37048 12.6499 8.23123C12.7408 8.21315 12.8333 8.20271 12.9261 8.20003C14.0151 8.06383 15.1171 8.05336 16.2086 8.16883C17.9252 8.35703 19.5868 8.86578 21.0999 9.66643C19.9124 8.73851 18.5332 8.06322 17.0536 7.68523L17.2811 7.43563C18.9432 7.51453 20.5387 8.08688 21.8474 9.07363C23.3345 11.8961 24.1346 15.0059 24.1874 18.1684C23.6224 18.9226 22.8741 19.5328 22.0075 19.9461C21.1409 20.3593 20.1822 20.5631 19.2149 20.5396V20.5396Z" fill="#999999"/>
</svg>
