<svg width="30" height="29" viewBox="0 0 30 29" fill="none" xmlns="http://www.w3.org/2000/svg">
<path d="M26.9733 0.166031H2.49325C1.29325 0.166031 0.333252 1.12603 0.333252 2.20603V26.806C0.333252 27.886 1.29325 28.846 2.49325 28.846H26.9733C28.1733 28.846 29.1333 27.886 29.1333 26.806V2.20603C29.1333 1.12603 28.1733 0.166031 26.9733 0.166031ZM8.85325 24.646H4.65325V10.966H8.85325V24.646ZM6.81325 9.04603C5.49325 9.04603 4.29325 7.96603 4.29325 6.52603C4.29325 5.08603 5.37325 4.00603 6.81325 4.00603C8.13325 4.00603 9.33325 5.08603 9.33325 6.52603C9.33325 7.96603 8.13325 9.04603 6.81325 9.04603ZM24.9333 24.526H20.7333V17.806C20.7333 16.246 20.7333 14.086 18.4533 14.086C16.1733 14.086 15.9333 15.886 15.9333 17.566V24.406H11.7333V10.966H15.6933V12.766H15.8133C16.4133 11.686 17.8532 10.486 19.8932 10.486C24.2132 10.486 25.0533 13.366 25.0533 17.086V24.526H24.9333Z" fill="#999999"/>
</svg>
