<svg width="11" height="4" viewBox="0 0 11 4" fill="none" xmlns="http://www.w3.org/2000/svg">
<path d="M2.65855 0.254425C2.29536 0.224944 1.93137 0.301412 1.6142 0.473819C1.29704 0.646227 1.04148 0.906541 0.880983 1.22069C0.720483 1.53484 0.662518 1.88819 0.714674 2.23449C0.76683 2.58079 0.926677 2.90391 1.17329 3.16155C1.41991 3.41919 1.74181 3.59936 2.09685 3.67846C2.45189 3.75756 2.82354 3.73192 3.16316 3.60489C3.50277 3.47786 3.79452 3.25536 4.00023 2.96651C4.20593 2.67767 4.31601 2.33593 4.31605 1.98603C4.32577 1.76782 4.2906 1.54991 4.21255 1.34476C4.13449 1.13962 4.01508 0.951247 3.86115 0.790429C3.70721 0.629611 3.52177 0.499497 3.31542 0.407526C3.10906 0.315555 2.88585 0.263529 2.65855 0.254425V0.254425ZM8.5898 0.254425C8.22661 0.224944 7.86262 0.301412 7.54545 0.473819C7.22829 0.646227 6.97273 0.906541 6.81223 1.22069C6.65173 1.53484 6.59377 1.88819 6.64593 2.23449C6.69808 2.58079 6.85793 2.90391 7.10455 3.16155C7.35116 3.41919 7.67306 3.59936 8.0281 3.67846C8.38315 3.75756 8.7548 3.73192 9.09441 3.60489C9.43402 3.47786 9.72577 3.25536 9.93148 2.96651C10.1372 2.67767 10.2473 2.33593 10.2473 1.98603C10.257 1.76782 10.2219 1.54991 10.1438 1.34476C10.0657 1.13962 9.94633 0.951247 9.7924 0.790429C9.63846 0.629611 9.45302 0.499497 9.24666 0.407526C9.04031 0.315555 8.81711 0.263529 8.5898 0.254425V0.254425Z" fill="#999999"/>
</svg>
